<?xml version="1.0" encoding="UTF-8" standalone="no"?> <svg width="512" height="512" viewBox="0 0 512 512" fill="none" xmlns="http://www.w3.org/2000/svg">
<path d="M336 114.111L216 264H408C408 348.7 322.039 456 216 456C109.961 456 24 370.039 24 264C24 157.961 109.961 72.0002 216 72.0002C259.633 71.9328 301.977 86.7923 336 114.111" fill="#F3BE5F"/>
<path d="M407.75 272H235.31L353.36 390.04C349.77 393.973 346.043 397.793 342.18 401.5L224 283.31V455.79C221.35 455.93 218.683 456 216 456C213.32 456 210.65 455.95 208 455.83V283.31L86.01 405.3C82.0767 401.69 78.3067 397.92 74.7 393.99L196.69 272H24.17C24.05 269.35 24 266.68 24 264C24 261.32 24.05 258.65 24.17 256H196.69L74.7 134.01C78.31 130.08 82.08 126.31 86.01 122.7L208 244.69V72.17C210.65 72.05 213.32 72 216 72C218.68 72 221.35 72.05 224 72.16V254.01L216 264H408C408 266.65 407.917 269.317 407.75 272Z" fill="#FEF9F0"/>
<path d="M407.75 272H235.31L353.36 390.04C349.77 393.973 346.043 397.793 342.18 401.5L224 283.31V455.79C221.35 455.93 218.683 456 216 456C213.32 456 210.65 455.95 208 455.83V283.31L86.01 405.3C82.0767 401.69 78.3067 397.92 74.7 393.99L196.69 272H24.17C24.05 269.35 24 266.68 24 264C24 261.32 24.05 258.65 24.17 256H196.69L74.7 134.01C78.31 130.08 82.08 126.31 86.01 122.7L208 244.69V72.17C210.65 72.05 213.32 72 216 72C218.68 72 221.35 72.05 224 72.16V254.01L216 264H408C408 266.65 407.917 269.317 407.75 272Z" fill="#DCAC56"/>
<path d="M360 152L360.411 150.768C362.621 144.138 366.861 138.372 372.531 134.286C378.2 130.199 385.011 128 392 128V128L475.675 236.778C471.04 235.692 466.209 235.752 461.603 236.953C456.996 238.154 452.751 240.46 449.236 243.671C445.443 247.194 442.315 251.37 440 256V256L360 152Z" fill="#EE9D0D"/>
<path d="M248 176C252.418 176 256 172.418 256 168C256 163.582 252.418 160 248 160C243.582 160 240 163.582 240 168C240 172.418 243.582 176 248 176Z" fill="#F7A014"/>
<path d="M360 152L216 256H440L360 152Z" fill="#F3BE5F"/>
<path d="M464 232C457.635 232 451.53 234.529 447.029 239.029C442.529 243.53 440 249.635 440 256H216C211.757 256 207.687 257.686 204.686 260.686C201.686 263.687 200 267.757 200 272C200 276.243 201.686 280.313 204.686 283.314C207.687 286.314 211.757 288 216 288H224C230.365 288 236.47 290.529 240.971 295.029C245.471 299.53 248 305.635 248 312V351.459C248 364.915 259.011 376.251 272.464 375.996C278.748 375.874 284.733 373.293 289.134 368.806C293.535 364.319 296 358.285 296 352V328.452C296 319.837 302.621 312.424 311.226 312.018C313.39 311.913 315.552 312.249 317.583 313.005C319.613 313.761 321.468 314.921 323.037 316.415C324.605 317.91 325.854 319.707 326.707 321.698C327.56 323.69 328 325.834 328 328C327.999 334.286 330.464 340.321 334.865 344.809C339.266 349.296 345.252 351.878 351.536 352C364.989 352.255 376 340.919 376 327.463V312C376 305.635 378.529 299.53 383.029 295.029C387.53 290.529 393.635 288 400 288H464C470.365 288 476.47 285.471 480.971 280.971C485.471 276.47 488 270.365 488 264V256C488 249.635 485.471 243.53 480.971 239.029C476.47 234.529 470.365 232 464 232Z" fill="#F7A014"/>
<path d="M376 200L352 232H392L376 200Z" fill="#027E2A"/>
<path d="M256 232C264.837 232 272 224.837 272 216C272 207.163 264.837 200 256 200C247.163 200 240 207.163 240 216C240 224.837 247.163 232 256 232Z" fill="#8EB23E"/>
<path d="M176 376C184.837 376 192 368.837 192 360C192 351.163 184.837 344 176 344C167.163 344 160 351.163 160 360C160 368.837 167.163 376 176 376Z" fill="#8EB23E"/>
<path d="M168 144C176.837 144 184 136.837 184 128C184 119.163 176.837 112 168 112C159.163 112 152 119.163 152 128C152 136.837 159.163 144 168 144Z" fill="#8EB23E"/>
<path d="M80 320C88.8366 320 96 312.837 96 304C96 295.163 88.8366 288 80 288C71.1634 288 64 295.163 64 304C64 312.837 71.1634 320 80 320Z" fill="#027E2A"/>
<path d="M320.97 221.529C317.607 220.024 314.575 217.87 312.047 215.191C309.518 212.512 307.543 209.36 306.235 205.916C304.927 202.472 304.311 198.804 304.423 195.122C304.535 191.44 305.372 187.816 306.887 184.458C308.402 181.1 310.565 178.074 313.252 175.553C315.938 173.032 319.096 171.067 322.544 169.769C325.991 168.47 329.661 167.865 333.343 167.988C337.025 168.111 340.646 168.959 344 170.484L320.97 221.529Z" fill="#CB2527"/>
<path d="M240 112.618C242.772 110.203 245.994 108.358 249.479 107.187C252.965 106.017 256.647 105.544 260.315 105.797C263.984 106.049 267.566 107.022 270.859 108.659C274.151 110.296 277.089 112.566 279.504 115.338C281.92 118.11 283.765 121.332 284.936 124.817C286.106 128.303 286.579 131.985 286.326 135.653C286.074 139.322 285.101 142.904 283.464 146.197C281.827 149.489 279.557 152.427 276.785 154.842L240 112.618Z" fill="#CB2527"/>
<path d="M88.4921 240.002C85.1297 238.497 82.0973 236.343 79.5688 233.663C77.0403 230.984 75.0654 227.832 73.7571 224.389C72.4489 220.945 71.8331 217.277 71.9451 213.594C72.057 209.912 72.8945 206.288 74.4095 202.93C75.9245 199.572 78.0873 196.546 80.7739 194.026C83.4605 191.505 86.6181 189.539 90.0658 188.241C93.5134 186.943 97.1834 186.338 100.865 186.461C104.547 186.584 108.169 187.432 111.522 188.957L88.4921 240.002Z" fill="#CB2527"/>
<path d="M132.653 288C139.715 290.297 145.575 295.305 148.945 301.923C152.314 308.54 152.916 316.226 150.62 323.288C148.323 330.349 143.314 336.21 136.697 339.579C130.079 342.948 122.394 343.551 115.332 341.254L132.653 288Z" fill="#CB2527"/>
<path d="M242.637 399.018C243.75 395.512 245.543 392.259 247.913 389.446C250.284 386.632 253.186 384.314 256.453 382.623C259.72 380.931 263.288 379.9 266.954 379.589C270.619 379.277 274.31 379.691 277.816 380.807C281.322 381.922 284.573 383.718 287.384 386.091C290.196 388.463 292.512 391.367 294.201 394.635C295.89 397.904 296.918 401.473 297.226 405.139C297.535 408.805 297.118 412.495 296 416L242.637 399.018Z" fill="#CB2527"/>
<path d="M296 240C300.418 240 304 236.418 304 232C304 227.582 300.418 224 296 224C291.582 224 288 227.582 288 232C288 236.418 291.582 240 296 240Z" fill="#F7A014"/>
<path d="M192 184C196.418 184 200 180.418 200 176C200 171.582 196.418 168 192 168C187.582 168 184 171.582 184 176C184 180.418 187.582 184 192 184Z" fill="#F7A014"/>
<path d="M184 424C188.418 424 192 420.418 192 416C192 411.582 188.418 408 184 408C179.582 408 176 411.582 176 416C176 420.418 179.582 424 184 424Z" fill="#F7A014"/>
<path d="M352 368C356.418 368 360 364.418 360 360C360 355.582 356.418 352 352 352C347.582 352 344 355.582 344 360C344 364.418 347.582 368 352 368Z" fill="#F7A014"/>
<path d="M144 408C148.418 408 152 404.418 152 400C152 395.582 148.418 392 144 392C139.582 392 136 395.582 136 400C136 404.418 139.582 408 144 408Z" fill="#F7A014"/>
<path d="M136 240C140.418 240 144 236.418 144 232C144 227.582 140.418 224 136 224C131.582 224 128 227.582 128 232C128 236.418 131.582 240 136 240Z" fill="#F7A014"/>
<path d="M248 176C252.418 176 256 172.418 256 168C256 163.582 252.418 160 248 160C243.582 160 240 163.582 240 168C240 172.418 243.582 176 248 176Z" fill="black"/>
<path d="M478.575 227.527C478.415 227.254 478.238 226.991 478.046 226.739L398.051 122.745V122.739C397.01 121.385 395.562 120.399 393.921 119.927C392.279 119.454 390.529 119.52 388.927 120.114C381.028 120.697 373.463 123.542 367.138 128.31C360.813 133.078 355.995 139.566 353.26 147L335.22 160.029C335.188 160.052 335.161 160.079 335.129 160.102C326.68 159.48 318.281 161.858 311.412 166.817C304.543 171.777 299.643 179 297.575 187.216L276.02 202.784C275.905 202.611 275.787 202.441 275.668 202.271L342.245 119.111C343.57 117.455 344.183 115.341 343.949 113.233C343.716 111.125 342.655 109.196 341 107.87C305.506 79.5089 261.433 64.0411 216 64C105.72 64 16 153.72 16 264C16 374.28 105.72 464 216 464C262.471 464 309.1 443.993 347.3 407.666C380.34 376.242 403.8 335.886 412.423 296H464C472.484 295.99 480.618 292.616 486.617 286.617C492.616 280.618 495.99 272.484 496 264V256C495.994 250.111 494.365 244.337 491.291 239.314C488.217 234.29 483.817 230.212 478.575 227.527V227.527ZM432 280H400C391.516 280.01 383.382 283.384 377.383 289.383C371.384 295.382 368.01 303.516 368 312V327.459C367.989 329.688 367.537 331.893 366.669 333.946C365.802 335.999 364.536 337.861 362.945 339.422C361.468 340.897 359.712 342.061 357.779 342.847C355.845 343.633 353.775 344.025 351.688 344C347.505 343.899 343.526 342.171 340.597 339.184C337.668 336.196 336.019 332.184 336 328C335.994 324.754 335.332 321.542 334.054 318.558C332.776 315.574 330.909 312.878 328.564 310.633C326.221 308.378 323.44 306.628 320.393 305.492C317.345 304.355 314.098 303.857 310.85 304.027C304.63 304.374 298.783 307.107 294.526 311.657C290.27 316.206 287.932 322.222 288 328.452V352C287.981 356.184 286.332 360.196 283.403 363.184C280.474 366.171 276.495 367.899 272.312 368C272.215 368 272.118 368 272.021 368C267.905 367.981 263.963 366.335 261.055 363.422C259.464 361.861 258.198 359.999 257.331 357.946C256.463 355.893 256.011 353.688 256 351.459V312C255.99 303.516 252.616 295.382 246.617 289.383C240.618 283.384 232.484 280.01 224 280H216C213.878 280 211.843 279.157 210.343 277.657C208.843 276.157 208 274.122 208 272C208 269.878 208.843 267.843 210.343 266.343C211.843 264.843 213.878 264 216 264H432V280ZM347.7 384.38L304 340.686V328.452C303.963 326.344 304.727 324.301 306.137 322.734C307.548 321.167 309.5 320.193 311.6 320.009C312.683 319.955 313.766 320.121 314.782 320.498C315.799 320.876 316.728 321.455 317.514 322.203C318.3 322.95 318.925 323.849 319.352 324.846C319.78 325.843 320 326.916 320 328C320.038 335.095 322.418 341.979 326.771 347.583C331.124 353.186 337.205 357.195 344.071 358.986C343.925 360.074 344.005 361.18 344.305 362.235C344.605 363.291 345.119 364.274 345.815 365.122C346.511 365.971 347.374 366.667 348.351 367.168C349.327 367.668 350.397 367.963 351.492 368.032C352.587 368.102 353.685 367.946 354.717 367.573C355.749 367.2 356.694 366.619 357.492 365.866C358.29 365.112 358.924 364.203 359.356 363.194C359.787 362.185 360.007 361.097 360 360C359.998 359.654 359.973 359.308 359.925 358.965C364.091 357.866 367.989 355.927 371.377 353.265C364.409 364.309 356.487 374.72 347.7 384.38ZM260.136 389.744C263.029 388.248 266.244 387.481 269.501 387.51C272.758 387.539 275.958 388.363 278.824 389.91C281.69 391.458 284.135 393.682 285.946 396.389C287.757 399.096 288.88 402.204 289.216 405.444L254.271 394.323C255.921 392.444 257.908 390.89 260.131 389.744H260.136ZM395.884 296.558C393.012 308.237 388.983 319.602 383.857 330.482C383.957 329.482 384.005 328.471 384.005 327.459V312C384.011 308.479 385.178 305.058 387.324 302.266C389.471 299.475 392.477 297.469 395.879 296.558H395.884ZM32.185 272H192C192.002 273.44 192.133 274.877 192.392 276.294L159.556 309.13C158.537 302.551 155.715 296.382 151.403 291.31C147.091 286.237 141.457 282.458 135.128 280.393C133.111 279.737 130.915 279.909 129.024 280.871C127.134 281.834 125.703 283.508 125.046 285.525L107.725 338.779C107.4 339.778 107.275 340.831 107.357 341.879C107.439 342.926 107.726 343.947 108.203 344.883C108.679 345.82 109.336 346.653 110.134 347.336C110.933 348.018 111.858 348.537 112.857 348.862C114.693 349.459 116.574 349.908 118.481 350.205L80.424 388.262C51.1242 356.418 34.0362 315.233 32.185 272V272ZM80.424 139.738L196.686 256H32.185C34.0362 212.767 51.1242 171.582 80.424 139.738V139.738ZM264 216C264 217.582 263.531 219.129 262.652 220.445C261.773 221.76 260.523 222.786 259.061 223.391C257.6 223.997 255.991 224.155 254.439 223.846C252.887 223.538 251.462 222.776 250.343 221.657C249.224 220.538 248.462 219.113 248.154 217.561C247.845 216.009 248.003 214.4 248.609 212.939C249.214 211.477 250.24 210.227 251.555 209.348C252.871 208.469 254.418 208 256 208C258.121 208.002 260.154 208.846 261.654 210.346C263.154 211.846 263.998 213.879 264 216V216ZM252.23 239.7C258.498 240.699 264.906 239.173 270.052 235.457C275.197 231.741 278.66 226.138 279.683 219.874L298.083 206.586C298.306 207.308 298.544 208.028 298.813 208.741C300.474 213.169 302.997 217.224 306.236 220.67C309.474 224.117 313.365 226.887 317.681 228.82C318.638 229.253 319.672 229.493 320.722 229.526C321.772 229.56 322.819 229.386 323.801 229.014C324.784 228.643 325.684 228.081 326.45 227.361C327.215 226.642 327.831 225.778 328.263 224.82L351.293 173.775C352.122 171.94 352.225 169.859 351.58 167.951L358.393 163.031L423.753 248H240.74L252.23 239.7ZM433.254 194.75C425.63 197.692 419.039 202.81 414.3 209.468L393.3 182.168C395.142 178.402 397.894 175.155 401.306 172.719C404.718 170.283 408.683 168.736 412.843 168.217L433.254 194.75ZM208 244.686L91.738 128.424C123.583 99.1247 164.767 82.0365 208 80.184V244.686ZM125.931 334.532L137.27 299.67C140.18 302.254 142.273 305.63 143.293 309.385C144.313 313.141 144.215 317.112 143.011 320.812C141.807 324.513 139.55 327.782 136.517 330.219C133.483 332.656 129.804 334.155 125.931 334.532V334.532ZM200.776 290.539C202.929 292.31 205.373 293.692 208 294.624V447.816C164.767 445.964 123.583 428.875 91.738 399.576L200.776 290.539ZM436.958 238.924L424.833 223.163C426.523 219.333 429.132 215.98 432.429 213.401C435.726 210.821 439.609 209.096 443.733 208.377L456.449 224.907C448.384 226.882 441.397 231.907 436.958 238.924V238.924ZM388.271 136.274L402.194 154.374C394.485 157.103 387.762 162.062 382.877 168.621L369.052 150.647C370.812 146.845 373.491 143.541 376.845 141.032C380.2 138.523 384.127 136.888 388.271 136.274V136.274ZM314.254 187.782C315.843 184.271 318.41 181.292 321.649 179.204C324.888 177.115 328.661 176.006 332.515 176.008H332.731L317.654 209.424C315.047 206.537 313.337 202.952 312.733 199.109C312.129 195.266 312.658 191.33 314.254 187.782V187.782ZM262.641 192.942C257.761 191.532 252.559 191.707 247.785 193.444C243.012 195.18 238.912 198.387 236.079 202.603C233.245 206.819 231.823 211.826 232.018 216.902C232.213 221.978 234.015 226.861 237.164 230.847L224 240.354V80.172C260.33 81.5964 295.396 93.8984 324.653 115.484L262.641 192.942ZM224 447.781V296C228.242 296.005 232.309 297.692 235.308 300.692C238.308 303.691 239.995 307.758 240 312V351.459C240.016 355.814 240.895 360.122 242.585 364.136C244.276 368.149 246.744 371.788 249.849 374.842C250.358 375.342 250.886 375.816 251.421 376.278C243.585 380.737 237.724 387.993 235.014 396.592C234.696 397.593 234.577 398.647 234.666 399.694C234.755 400.741 235.05 401.76 235.533 402.694C236.015 403.627 236.677 404.456 237.481 405.133C238.284 405.81 239.213 406.323 240.214 406.641L293.577 423.623C294.578 423.941 295.632 424.06 296.679 423.971C297.726 423.882 298.745 423.587 299.679 423.104C300.612 422.622 301.441 421.96 302.118 421.156C302.795 420.353 303.308 419.424 303.626 418.423C305.924 411.168 305.867 403.372 303.464 396.151C301.061 388.93 296.436 382.655 290.249 378.223C295.99 374.202 300.271 368.426 302.449 361.764L336.517 395.832C336.434 395.911 336.352 395.993 336.269 396.073C303.276 427.45 263.7 445.618 224 447.781ZM480 264C479.995 268.242 478.308 272.309 475.308 275.308C472.309 278.308 468.242 279.995 464 280H448V256C448 251.757 449.686 247.687 452.686 244.686C455.687 241.686 459.757 240 464 240C468.243 240 472.313 241.686 475.314 244.686C478.314 247.687 480 251.757 480 256V264Z" fill="black"/>
<path d="M399.155 228.422L383.155 196.422C382.545 195.202 381.634 194.159 380.507 193.391C379.38 192.622 378.076 192.155 376.718 192.032C375.36 191.91 373.993 192.137 372.747 192.691C371.502 193.245 370.418 194.109 369.6 195.2L345.6 227.2C344.709 228.388 344.166 229.802 344.032 231.281C343.899 232.761 344.18 234.249 344.845 235.577C345.509 236.906 346.53 238.024 347.794 238.805C349.058 239.586 350.514 240 352 240H392C393.364 240 394.705 239.651 395.896 238.987C397.087 238.323 398.088 237.365 398.805 236.205C399.522 235.045 399.93 233.721 399.992 232.359C400.053 230.997 399.765 229.641 399.155 228.422V228.422ZM368 224L374.634 215.155L379.056 224H368Z" fill="black"/>
<path d="M176 336C171.253 336 166.613 337.408 162.666 340.045C158.72 342.682 155.643 346.43 153.827 350.816C152.01 355.201 151.535 360.027 152.461 364.682C153.387 369.338 155.673 373.614 159.029 376.971C162.386 380.327 166.662 382.613 171.318 383.539C175.973 384.465 180.799 383.99 185.184 382.173C189.57 380.357 193.318 377.28 195.955 373.334C198.592 369.387 200 364.747 200 360C199.993 353.637 197.462 347.537 192.963 343.037C188.463 338.538 182.363 336.007 176 336V336ZM176 368C174.418 368 172.871 367.531 171.555 366.652C170.24 365.773 169.214 364.523 168.609 363.061C168.003 361.6 167.845 359.991 168.154 358.439C168.462 356.887 169.224 355.462 170.343 354.343C171.462 353.224 172.887 352.462 174.439 352.154C175.991 351.845 177.6 352.003 179.061 352.609C180.523 353.214 181.773 354.24 182.652 355.555C183.531 356.871 184 358.418 184 360C183.998 362.121 183.154 364.154 181.654 365.654C180.154 367.154 178.121 367.998 176 368V368Z" fill="black"/>
<path d="M168 152C172.747 152 177.387 150.592 181.334 147.955C185.28 145.318 188.357 141.57 190.173 137.184C191.99 132.799 192.465 127.973 191.539 123.318C190.613 118.662 188.327 114.386 184.971 111.029C181.614 107.673 177.338 105.387 172.682 104.461C168.027 103.535 163.201 104.01 158.816 105.827C154.43 107.643 150.682 110.72 148.045 114.666C145.408 118.613 144 123.253 144 128C144.007 134.363 146.538 140.463 151.037 144.963C155.537 149.462 161.637 151.993 168 152V152ZM168 120C169.582 120 171.129 120.469 172.445 121.348C173.76 122.227 174.786 123.477 175.391 124.939C175.997 126.4 176.155 128.009 175.846 129.561C175.538 131.113 174.776 132.538 173.657 133.657C172.538 134.776 171.113 135.538 169.561 135.846C168.009 136.155 166.4 135.997 164.939 135.391C163.477 134.786 162.227 133.76 161.348 132.445C160.469 131.129 160 129.582 160 128C160.002 125.879 160.846 123.846 162.346 122.346C163.846 120.846 165.879 120.002 168 120V120Z" fill="black"/>
<path d="M80 280C75.2533 280 70.6131 281.408 66.6663 284.045C62.7195 286.682 59.6434 290.43 57.8269 294.816C56.0104 299.201 55.5351 304.027 56.4612 308.682C57.3872 313.338 59.673 317.614 63.0294 320.971C66.3859 324.327 70.6623 326.613 75.3178 327.539C79.9734 328.465 84.799 327.99 89.1844 326.173C93.5698 324.357 97.3181 321.28 99.9553 317.334C102.592 313.387 104 308.747 104 304C103.993 297.637 101.462 291.537 96.9627 287.037C92.4634 282.538 86.363 280.007 80 280V280ZM80 312C78.4178 312 76.871 311.531 75.5554 310.652C74.2399 309.773 73.2145 308.523 72.609 307.061C72.0035 305.6 71.845 303.991 72.1537 302.439C72.4624 300.887 73.2243 299.462 74.3432 298.343C75.462 297.224 76.8874 296.462 78.4393 296.154C79.9911 295.845 81.5997 296.003 83.0615 296.609C84.5233 297.214 85.7727 298.24 86.6518 299.555C87.5308 300.871 88 302.418 88 304C87.9976 306.121 87.154 308.154 85.6542 309.654C84.1545 311.154 82.121 311.998 80 312V312Z" fill="black"/>
<path d="M270.752 160.102C271.442 160.894 272.281 161.543 273.222 162.01C274.163 162.478 275.186 162.756 276.234 162.829C277.282 162.901 278.335 162.766 279.331 162.432C280.326 162.097 281.247 161.57 282.039 160.88C289.238 154.608 293.651 145.734 294.307 136.208C294.963 126.683 291.809 117.287 285.537 110.088C279.265 102.889 270.391 98.4755 260.865 97.8195C251.34 97.1635 241.944 100.318 234.745 106.59C233.953 107.28 233.304 108.119 232.836 109.06C232.368 110.001 232.091 111.025 232.018 112.073C231.946 113.121 232.081 114.173 232.416 115.169C232.75 116.165 233.278 117.086 233.968 117.878L270.752 160.102ZM273.473 120.602C276.025 123.538 277.667 127.153 278.198 131.007C278.73 134.86 278.127 138.785 276.465 142.302L252.384 114.66C256.096 113.494 260.067 113.435 263.812 114.489C267.557 115.543 270.914 117.664 273.473 120.595V120.602Z" fill="black"/>
<path d="M85.2 247.294C86.1573 247.727 87.1907 247.967 88.2409 248C89.2911 248.033 90.3375 247.859 91.3204 247.488C92.3032 247.116 93.2032 246.555 93.9687 245.835C94.7343 245.115 95.3505 244.252 95.782 243.294L118.812 192.249C119.685 190.315 119.754 188.113 119.004 186.129C118.254 184.144 116.746 182.539 114.812 181.666C106.109 177.739 96.2025 177.431 87.272 180.808C78.3415 184.186 71.1185 190.973 67.192 199.676C63.2655 208.379 62.9571 218.285 66.3346 227.216C69.7121 236.146 76.4989 243.369 85.202 247.296L85.2 247.294ZM81.774 206.254C83.3625 202.742 85.9303 199.764 89.1693 197.675C92.4084 195.587 96.1811 194.477 100.035 194.48H100.251L85.172 227.909C82.5651 225.018 80.8556 221.432 80.2518 217.587C79.6481 213.742 80.1763 209.804 81.772 206.254H81.774Z" fill="black"/>
<path d="M296 240C300.418 240 304 236.418 304 232C304 227.582 300.418 224 296 224C291.582 224 288 227.582 288 232C288 236.418 291.582 240 296 240Z" fill="black"/>
<path d="M192 184C196.418 184 200 180.418 200 176C200 171.582 196.418 168 192 168C187.582 168 184 171.582 184 176C184 180.418 187.582 184 192 184Z" fill="black"/>
<path d="M184 424C188.418 424 192 420.418 192 416C192 411.582 188.418 408 184 408C179.582 408 176 411.582 176 416C176 420.418 179.582 424 184 424Z" fill="black"/>
<path d="M144 408C148.418 408 152 404.418 152 400C152 395.582 148.418 392 144 392C139.582 392 136 395.582 136 400C136 404.418 139.582 408 144 408Z" fill="black"/>
<path d="M136 240C140.418 240 144 236.418 144 232C144 227.582 140.418 224 136 224C131.582 224 128 227.582 128 232C128 236.418 131.582 240 136 240Z" fill="black"/>
</svg>
